<?xml version="1.0" encoding="UTF-8" standalone="no"?>
<!-- Created with Inkscape (http://www.inkscape.org/) -->

<svg
   width="110.0434mm"
   height="134.39774mm"
   viewBox="0 0 110.0434 134.39773"
   version="1.1"
   id="svg1"
   xml:space="preserve"
   inkscape:version="1.3 (0e150ed6c4, 2023-07-21)"
   sodipodi:docname="favicon.svg"
   xmlns:inkscape="http://www.inkscape.org/namespaces/inkscape"
   xmlns:sodipodi="http://sodipodi.sourceforge.net/DTD/sodipodi-0.dtd"
   xmlns="http://www.w3.org/2000/svg"
   xmlns:svg="http://www.w3.org/2000/svg"><sodipodi:namedview
     id="namedview1"
     pagecolor="#a7a7a7"
     bordercolor="#121212"
     borderopacity="1"
     inkscape:showpageshadow="0"
     inkscape:pageopacity="0"
     inkscape:pagecheckerboard="true"
     inkscape:deskcolor="#6a6a6a"
     inkscape:document-units="mm"
     inkscape:zoom="0.35355339"
     inkscape:cx="380.42345"
     inkscape:cy="601.04077"
     inkscape:window-width="2560"
     inkscape:window-height="1369"
     inkscape:window-x="-8"
     inkscape:window-y="-8"
     inkscape:window-maximized="1"
     inkscape:current-layer="layer1" /><defs
     id="defs1" /><g
     inkscape:groupmode="layer"
     id="layer2"
     inkscape:label="BigB"
     transform="translate(-51.589936,-45.016181)"><path
       id="path29"
       style="color:#000000;fill:#000000;stroke-linecap:square;-inkscape-stroke:none"
       d="m 97.165129,45.244784 a 16.115881,15.98003 0 0 0 -0.378789,0.02687 h -5.565551 l -1.013892,0.476457 -2.779159,1.312581 -35.277433,33.228463 V 176.97834 H 97.043172 L 97.694295,77.167383 A 16.115881,15.98003 0 0 0 113.28094,61.225203 16.115881,15.98003 0 0 0 97.165129,45.244784 Z m 1.918229,7.07347 0.63872,0.86558 c -0.100432,0.06036 -0.207131,0.13262 -0.320393,0.217558 -0.113263,0.08494 -0.210915,0.167254 -0.293006,0.246496 -0.258901,0.249917 -0.43161,0.556638 -0.518314,0.920874 -0.09282,0.357941 -0.08333,0.733295 0.02842,1.125513 0.111955,0.379827 0.332848,0.739563 0.663008,1.079521 l 2.623097,2.701127 -0.83354,0.804602 -4.915981,-5.061707 0.682129,-0.658358 0.993221,0.834058 0.03824,-0.03669 c -0.111153,-0.429391 -0.135081,-0.869993 -0.07183,-1.321367 0.06957,-0.457469 0.280966,-0.856509 0.634587,-1.197859 0.09472,-0.09143 0.20185,-0.182852 0.321427,-0.273885 0.113464,-0.09733 0.223465,-0.179012 0.330213,-0.245463 z m -4.259172,5.213635 c 0.249903,0.01796 0.500114,0.07406 0.750342,0.167948 0.500656,0.175378 0.974257,0.492824 1.420585,0.952397 l 0.485759,0.500228 -3.476274,3.355867 c 0.569011,0.560701 1.139169,0.857955 1.71049,0.891935 0.571522,0.02159 1.110232,-0.211538 1.615405,-0.699182 0.322048,-0.310872 0.578734,-0.613569 0.769979,-0.907955 0.191446,-0.306776 0.364702,-0.644559 0.519865,-1.013891 l 0.7059,0.727087 c -0.148848,0.363237 -0.324976,0.691801 -0.52865,0.985987 -0.19756,0.300481 -0.470215,0.618175 -0.817521,0.95343 -0.486229,0.469356 -1.006908,0.783164 -1.562695,0.941544 -0.555787,0.158381 -1.124497,0.146184 -1.705839,-0.03669 -0.575029,-0.188969 -1.137485,-0.566668 -1.687753,-1.133264 -0.538039,-0.554005 -0.908464,-1.117465 -1.110526,-1.690853 -0.195747,-0.579484 -0.230152,-1.137722 -0.103353,-1.674833 0.133113,-0.543207 0.423957,-1.03121 0.872298,-1.463993 0.429397,-0.414497 0.893524,-0.679906 1.39268,-0.795818 0.249578,-0.05795 0.499405,-0.07791 0.749308,-0.05994 z m -0.509013,1.039213 c -0.337324,0.03059 -0.66454,0.199094 -0.981852,0.505395 -0.397824,0.38402 -0.588576,0.818079 -0.571541,1.30173 0.01723,0.47126 0.224106,0.954611 0.620117,1.450557 l 2.585889,-2.495972 c -0.422073,-0.421999 -0.859519,-0.670757 -1.312065,-0.746207 -0.114665,-0.02044 -0.228106,-0.0257 -0.340548,-0.0155 z m -4.599202,3.338297 0.358118,0.935344 c -0.300296,0.119111 -0.598186,0.259616 -0.892969,0.422196 -0.294784,0.16258 -0.565048,0.362754 -0.81132,0.60048 -0.340992,0.32916 -0.548079,0.639053 -0.621151,0.929143 -0.07287,0.277699 -0.01754,0.510833 0.165881,0.699699 0.140624,0.144796 0.298004,0.225104 0.471806,0.240295 0.173802,0.01519 0.400978,-0.02164 0.682129,-0.110071 0.287466,-0.09453 0.650607,-0.237656 1.088823,-0.428914 0.438215,-0.191258 0.831713,-0.333318 1.181323,-0.426848 0.349609,-0.09353 0.673196,-0.107062 0.970483,-0.04031 0.291173,0.06046 0.568052,0.225903 0.830957,0.49661 0.476899,0.491051 0.654988,1.039499 0.533301,1.644861 -0.121687,0.605362 -0.492206,1.206661 -1.111043,1.804024 -0.353621,0.341351 -0.687562,0.608761 -1.00149,0.802019 -0.307613,0.187162 -0.608173,0.324661 -0.901753,0.412894 L 89.92526,69.135315 c 0.299895,-0.09433 0.634833,-0.234484 1.00459,-0.420646 0.369958,-0.198553 0.703667,-0.441114 1.000456,-0.727604 0.423082,-0.408402 0.66501,-0.770133 0.726054,-1.085205 0.05493,-0.321368 -0.02794,-0.595534 -0.248047,-0.822173 -0.122282,-0.12591 -0.266795,-0.205584 -0.434082,-0.239261 -0.167287,-0.03368 -0.39136,-0.01248 -0.67231,0.06356 -0.274636,0.06995 -0.640649,0.203339 -1.097608,0.400492 -0.450644,0.191058 -0.853821,0.336524 -1.209745,0.436149 -0.355924,0.09963 -0.682815,0.122577 -0.980302,0.06821 -0.297488,-0.05436 -0.580541,-0.220125 -0.849561,-0.497127 -0.415757,-0.428095 -0.562919,-0.926294 -0.441833,-1.494483 0.1274,-0.574284 0.475027,-1.136053 1.043347,-1.684651 0.309419,-0.298682 0.62759,-0.544366 0.953947,-0.737423 0.332671,-0.199153 0.664337,-0.360952 0.995805,-0.485759 z m -4.35839,3.712952 3.504695,6.423897 -0.975651,0.942062 -3.641121,-2.01073 c -0.332768,-0.178874 -0.650284,-0.360617 -0.95188,-0.545187 -0.301596,-0.184569 -0.535367,-0.336921 -0.701249,-0.457336 l -0.03772,0.03617 c 0.115365,0.16918 0.263834,0.403965 0.445451,0.70435 0.181617,0.300385 0.356646,0.625902 0.525032,0.975651 l 1.85105,3.720187 -0.947229,0.914156 -6.308142,-3.717603 0.861963,-0.83199 3.324345,2.024165 c 0.332367,0.203657 0.664155,0.413372 0.996321,0.629419 0.332167,0.216048 0.599968,0.403535 0.802535,0.561723 l 0.03772,-0.03669 c -0.08499,-0.12531 -0.184759,-0.285079 -0.299723,-0.479041 -0.114964,-0.193961 -0.233106,-0.397134 -0.353984,-0.609781 -0.126991,-0.218944 -0.235771,-0.41931 -0.326078,-0.600481 l -1.869653,-3.720186 0.908988,-0.877983 3.641122,2.01073 c 0.277139,0.159388 0.572743,0.331478 0.886767,0.516248 0.314025,0.18477 0.569392,0.352986 0.765845,0.504879 l 0.03772,-0.03617 c -0.133908,-0.175674 -0.303657,-0.432537 -0.50953,-0.770495 -0.199558,-0.344054 -0.401726,-0.697661 -0.607198,-1.060401 l -1.912545,-3.386356 z m -7.736479,8.629964 c 0.281025,0.01537 0.565247,0.07347 0.852661,0.17415 0.575028,0.188969 1.134814,0.563661 1.678967,1.123962 0.813173,0.837304 1.227955,1.692699 1.244886,2.566769 0.02325,0.867974 -0.328013,1.652357 -1.0542,2.353344 -0.448341,0.432784 -0.947277,0.719486 -1.496549,0.859379 -0.549071,0.127503 -1.113845,0.09346 -1.694987,-0.101802 -0.587256,-0.20156 -1.152901,-0.582265 -1.697054,-1.142566 -0.813173,-0.837304 -1.231775,-1.683797 -1.255221,-2.53938 -0.01713,-0.861678 0.340819,-1.646262 1.07332,-2.353345 0.454656,-0.438879 0.95925,-0.725264 1.514636,-0.858862 0.274636,-0.06995 0.552516,-0.09701 0.833541,-0.08165 z m -0.479557,1.045931 c -0.41778,0.03278 -0.820877,0.236973 -1.209229,0.611849 -0.517802,0.499835 -0.728521,1.032343 -0.632003,1.597836 0.09652,0.565492 0.435638,1.147039 1.016476,1.745113 0.580837,0.598074 1.159263,0.960775 1.735294,1.087789 0.576232,0.114622 1.122925,-0.07791 1.640727,-0.577743 0.511488,-0.493739 0.719018,-1.02977 0.622701,-1.607654 -0.102431,-0.584179 -0.443906,-1.174944 -1.024744,-1.773018 -0.580837,-0.598074 -1.156392,-0.951557 -1.726509,-1.059884 -0.14253,-0.02708 -0.283454,-0.03522 -0.422713,-0.02429 z m -4.769735,2.859774 3.504179,6.423897 -0.975651,0.941545 -3.641122,-2.010213 c -0.332768,-0.178874 -0.649767,-0.360617 -0.951363,-0.545187 -0.301596,-0.184569 -0.535366,-0.337438 -0.701249,-0.457853 l -0.03824,0.03669 c 0.115366,0.169179 0.263834,0.403965 0.445451,0.70435 0.181617,0.300385 0.356647,0.625385 0.525033,0.975134 l 1.851566,3.720187 -0.947229,0.914673 -6.308142,-3.717603 0.861963,-0.83199 3.323828,2.024165 c 0.332367,0.203657 0.664673,0.413372 0.996839,0.629419 0.332166,0.216048 0.599451,0.403019 0.802018,0.561206 l 0.03772,-0.03669 c -0.085,-0.12531 -0.18476,-0.284562 -0.299724,-0.478524 -0.114964,-0.193961 -0.233106,-0.397651 -0.353983,-0.610298 -0.126992,-0.218944 -0.235255,-0.418793 -0.325562,-0.599964 l -1.87017,-3.720703 0.909505,-0.877466 3.641122,2.01073 c 0.277139,0.159388 0.572743,0.331478 0.886767,0.516248 0.314025,0.18477 0.569392,0.352986 0.765845,0.504879 l 0.03772,-0.03669 C 74.41503,84.022287 74.245281,83.765424 74.039408,83.427466 73.83985,83.083412 73.637165,82.730322 73.431694,82.367582 l -1.912545,-3.386873 z m -7.980392,8.537463 c 0.09812,-0.0013 0.197832,0.0025 0.29869,0.01189 0.807066,0.06256 1.632592,0.528033 2.476335,1.396814 0.843743,0.868781 1.286843,1.709812 1.329634,2.522327 0.04279,0.812514 -0.24818,1.520442 -0.873331,2.123901 -0.397824,0.384019 -0.793281,0.625479 -1.186491,0.724504 -0.393211,0.09902 -0.760337,0.117586 -1.101225,0.05633 l -0.06666,0.06408 0.453202,0.806669 -0.596863,0.576192 -6.9696,-7.176823 0.83354,-0.804602 1.696538,1.74718 c 0.207878,0.214048 0.397131,0.421128 0.567924,0.622184 0.170993,0.188666 0.301947,0.342773 0.393257,0.461988 l 0.04754,-0.04548 c -0.06264,-0.354245 -0.03807,-0.726042 0.0739,-1.11466 0.111963,-0.388619 0.366987,-0.774567 0.764811,-1.158586 0.552533,-0.53336 1.171978,-0.80462 1.858801,-0.813904 z m -0.232543,1.101742 c -0.389138,0.02744 -0.755282,0.207023 -1.098641,0.538468 -0.543062,0.524217 -0.769201,1.041177 -0.677995,1.55081 0.09752,0.503538 0.461139,1.079622 1.090889,1.72806 l 0.03669,0.03772 c 0.605294,0.623256 1.170938,1.003961 1.697054,1.142566 0.526316,0.126214 1.067466,-0.07854 1.623156,-0.61495 0.454656,-0.438879 0.630133,-0.931973 0.5271,-1.478979 -0.09672,-0.553102 -0.450543,-1.144501 -1.061951,-1.774052 -0.775724,-0.798744 -1.48774,-1.175374 -2.136303,-1.129647 z" /></g><g
     inkscape:label="earth"
     inkscape:groupmode="layer"
     id="layer1"
     style="display:inline"
     transform="translate(-51.589936,-45.016181)"><g
       id="g1"
       transform="matrix(0.26458333,0,0,0.26458333,37.217044,80.640201)"
       style="opacity:1"><g
         id="g4">&#10;	<path
   style="fill:#7f553e"
   d="m 293.924,373.08 c 1.358,0.094 2.705,0.17 4.044,0.238 l -0.046,-0.629 -5.093,0.316 z"
   id="path2" />&#10;	&#10;	&#10;</g><path
         style="fill:#00c3ff"
         d="m 276.384,335.506 c -90.568,0 -164.251,-73.683 -164.251,-164.252 0,-90.569 73.683,-164.25 164.251,-164.25 90.568,0 164.251,73.682 164.251,164.251 0,90.569 -73.683,164.251 -164.251,164.251 z"
         id="path5" /><path
         style="fill:#05acd3"
         d="m 333.89,277.999 c -90.568,0 -164.251,-73.683 -164.251,-164.252 0,-30.566 8.402,-59.204 23.004,-83.74 -48.165,28.663 -80.511,81.244 -80.511,141.246 0,90.568 73.683,164.252 164.251,164.252 60.001,0 112.582,-32.346 141.246,-80.511 -24.535,14.603 -53.172,23.005 -83.739,23.005 z"
         id="path6" /><path
         style="fill:#b4e66e"
         d="m 410.823,199.809 -29.049,6.01 -4.909,-1.732 c -2.12,-0.748 -4.333,-1.128 -6.576,-1.128 -5.5,0 -10.794,2.325 -14.522,6.377 l -14.396,15.65 -8.967,8.577 c -3.49,3.338 -5.192,8.005 -4.669,12.811 0.524,4.802 3.193,8.993 7.323,11.501 l 11.654,7.077 23.782,-13.872 5.863,13.681 27.079,10.471 c 1.326,-1.618 2.619,-3.263 3.884,-4.931 0.586,-0.772 1.163,-1.551 1.733,-2.332 0.177,-0.242 0.355,-0.484 0.531,-0.728 0.533,-0.737 1.059,-1.481 1.579,-2.225 0.213,-0.306 0.426,-0.612 0.637,-0.919 0.478,-0.694 0.951,-1.393 1.417,-2.094 0.252,-0.378 0.501,-0.757 0.75,-1.139 0.423,-0.647 0.843,-1.297 1.257,-1.949 0.285,-0.45 0.566,-0.904 0.847,-1.356 0.373,-0.601 0.745,-1.203 1.11,-1.809 0.312,-0.519 0.619,-1.042 0.927,-1.565 0.327,-0.557 0.656,-1.114 0.978,-1.675 0.334,-0.585 0.66,-1.177 0.989,-1.766 0.286,-0.514 0.575,-1.028 0.855,-1.545 0.353,-0.652 0.696,-1.312 1.041,-1.97 0.247,-0.47 0.499,-0.939 0.741,-1.412 0.405,-0.792 0.797,-1.592 1.19,-2.391 0.484,-0.987 0.957,-1.979 1.422,-2.975 0.208,-0.447 0.422,-0.89 0.626,-1.34 0.356,-0.782 0.699,-1.571 1.043,-2.358 0.153,-0.35 0.31,-0.699 0.46,-1.051 0.364,-0.851 0.716,-1.707 1.067,-2.564 0.116,-0.284 0.234,-0.567 0.348,-0.852 0.367,-0.914 0.723,-1.834 1.075,-2.755 0.084,-0.22 0.168,-0.439 0.251,-0.66 0.368,-0.981 0.726,-1.964 1.076,-2.953 0.053,-0.151 0.106,-0.301 0.159,-0.452 0.367,-1.049 0.724,-2.1 1.071,-3.158 0.025,-0.076 0.05,-0.153 0.074,-0.229 0.364,-1.117 0.717,-2.238 1.059,-3.364 l 0.006,-0.02 c 0.647,-2.143 1.263,-4.301 1.824,-6.48 z"
         id="path7" /><path
         style="fill:#a0d755"
         d="m 403.417,275.221 c 1.859,-2.267 3.669,-4.576 5.406,-6.942 0.058,-0.079 0.118,-0.157 0.176,-0.237 1.004,-1.373 1.988,-2.76 2.95,-4.164 0.077,-0.112 0.148,-0.227 0.24,-0.33 1.035,-1.159 1.783,-2.533 2.555,-3.881 0.049,-0.085 0.104,-0.167 0.157,-0.251 0.009,-0.015 0.019,-0.029 0.028,-0.044 0.726,-1.139 -0.554,-2.485 -1.737,-1.831 -8.196,4.535 -16.821,8.384 -25.792,11.486 z"
         id="path8" /><path
         style="fill:#b4e66e"
         d="m 395.451,112.998 9.48,1.997 c 0.944,0.199 1.912,0.299 2.877,0.299 1.605,0 3.186,-0.273 4.694,-0.812 l 15.804,-5.635 c -1.132,-2.745 -2.332,-5.456 -3.606,-8.125 -0.81,-1.697 -1.651,-3.376 -2.516,-5.04 -0.109,-0.209 -0.22,-0.416 -0.33,-0.624 -0.753,-1.435 -1.529,-2.856 -2.323,-4.264 -0.144,-0.256 -0.285,-0.514 -0.43,-0.769 -0.836,-1.467 -1.699,-2.918 -2.578,-4.355 -0.291,-0.474 -0.589,-0.944 -0.884,-1.415 -0.601,-0.961 -1.215,-1.913 -1.835,-2.861 -0.38,-0.58 -0.757,-1.163 -1.145,-1.738 -0.796,-1.184 -1.611,-2.355 -2.437,-3.517 -0.542,-0.76 -1.097,-1.512 -1.652,-2.263 -0.386,-0.524 -0.776,-1.046 -1.169,-1.565 -2.069,-2.732 -4.219,-5.4 -6.451,-7.995 -0.261,-0.304 -0.523,-0.607 -0.786,-0.909 -2.295,-2.63 -4.673,-5.187 -7.129,-7.666 -0.349,-0.352 -0.698,-0.703 -1.051,-1.053 -0.749,-0.743 -1.502,-1.484 -2.265,-2.212 -0.533,-0.508 -1.078,-1.008 -1.618,-1.509 -1.046,-0.972 -2.103,-1.931 -3.174,-2.876 -0.681,-0.6 -1.366,-1.197 -2.056,-1.786 -0.556,-0.475 -1.113,-0.95 -1.676,-1.417 -1.214,-1.008 -2.439,-2.002 -3.684,-2.976 -0.315,-0.247 -0.636,-0.487 -0.954,-0.732 -1.17,-0.901 -2.35,-1.79 -3.546,-2.661 -0.27,-0.197 -0.538,-0.395 -0.808,-0.59 -3.046,-2.192 -6.172,-4.288 -9.378,-6.279 -0.262,-0.163 -0.523,-0.33 -0.786,-0.491 l -0.651,-0.404 c -1.736,-1.055 -3.499,-2.068 -5.276,-3.06 l -17.717,25.414 c -2.713,3.89 -3.76,8.605 -2.947,13.275 l 2.771,15.886 v 24.985 c 0,4.362 2.934,8.235 7.135,9.417 l 19.929,5.605 c 1.137,0.318 2.311,0.479 3.491,0.479 2.45,0 4.84,-0.69 6.91,-1.998 l 9.309,-5.879 c 2.269,-1.433 4.869,-2.19 7.518,-2.19 0.976,0.001 1.968,0.105 2.94,0.309 z"
         id="path9" /><path
         id="SVGCleanerId_0"
         style="fill:#b4e66e"
         d="m 244.313,287.534 -0.32,-0.018 c -2.937,-0.174 -5.524,-1.726 -7.074,-4.254 l -7.728,-12.696 -5.072,-20.288 6.173,-10.101 c 3.14,-5.137 8.828,-8.326 14.846,-8.326 h 13.344 c 6.386,0 12.272,3.734 14.991,9.513 l 7.716,16.401 c 1.101,2.327 1.209,4.951 0.301,7.375 -0.924,2.445 -2.738,4.349 -5.12,5.379 l -21.383,9.266 -3.402,4.33 c -1.708,2.174 -4.268,3.421 -7.022,3.421 z" /><g
         id="g9">&#10;	<path
   id="SVGCleanerId_0_1_"
   style="fill:#b4e66e"
   d="m 244.313,287.534 -0.32,-0.018 c -2.937,-0.174 -5.524,-1.726 -7.074,-4.254 l -7.728,-12.696 -5.072,-20.288 6.173,-10.101 c 3.14,-5.137 8.828,-8.326 14.846,-8.326 h 13.344 c 6.386,0 12.272,3.734 14.991,9.513 l 7.716,16.401 c 1.101,2.327 1.209,4.951 0.301,7.375 -0.924,2.445 -2.738,4.349 -5.12,5.379 l -21.383,9.266 -3.402,4.33 c -1.708,2.174 -4.268,3.421 -7.022,3.421 z" />&#10;</g><path
         style="fill:#a0d755"
         d="m 229.911,240.799 -5.793,9.479 5.072,20.288 7.728,12.696 c 1.551,2.529 4.138,4.08 7.074,4.254 l 0.32,0.018 h 0.25 c 2.753,0 5.314,-1.247 7.022,-3.421 l 3.402,-4.33 21.383,-9.266 c 1.069,-0.462 2.016,-1.11 2.828,-1.894 -18.085,-6.404 -34.726,-15.887 -49.286,-27.824 z"
         id="path10" /><path
         style="fill:#b4e66e"
         d="m 225.441,15.101 c -1.195,0.391 -2.384,0.795 -3.567,1.213 -0.043,0.015 -0.085,0.03 -0.128,0.045 -1.121,0.396 -2.235,0.804 -3.345,1.224 -0.14,0.053 -0.281,0.107 -0.42,0.16 -1.004,0.382 -2.001,0.774 -2.996,1.176 -0.284,0.115 -0.566,0.231 -0.849,0.348 -0.843,0.346 -1.683,0.697 -2.519,1.057 -0.485,0.209 -0.969,0.422 -1.452,0.636 -0.628,0.277 -1.256,0.555 -1.879,0.84 -0.766,0.35 -1.529,0.708 -2.289,1.071 -0.337,0.16 -0.674,0.318 -1.011,0.48 -24.909,12.073 -46.327,30.257 -62.296,52.592 -0.115,0.162 -0.232,0.322 -0.347,0.484 -0.554,0.78 -1.098,1.57 -1.638,2.36 -0.246,0.361 -0.495,0.721 -0.739,1.085 -0.396,0.59 -0.784,1.187 -1.174,1.782 -0.36,0.552 -0.721,1.103 -1.076,1.66 -0.263,0.414 -0.52,0.832 -0.78,1.249 -0.451,0.725 -0.903,1.45 -1.345,2.183 -0.16,0.265 -0.314,0.533 -0.473,0.799 -0.515,0.867 -1.029,1.737 -1.529,2.615 -1.508,2.644 -2.94,5.337 -4.302,8.07 l 28.986,12.037 c 0.599,0.248 1.099,0.757 1.333,1.357 l 8.677,22.172 h 28.038 c 1.13,0 2.111,0.773 2.376,1.871 l 6.5,26.929 22.885,17.938 c 5.202,4.077 12.655,-0.58 11.27,-7.043 l -2.152,-10.041 23.951,-27.943 5.044,-43.37 -16.552,-22.396 c -0.31,-0.419 -0.477,-0.926 -0.477,-1.448 V 44.119 L 231.74,13.171 c -2.116,0.598 -4.21,1.246 -6.29,1.926 z"
         id="path11" /><path
         style="fill:#a0d755"
         d="m 170.865,133.798 c -0.803,-6.574 -1.226,-13.263 -1.226,-20.05 0,-28.734 7.425,-55.763 20.446,-79.282 0.657,-1.188 -0.698,-2.473 -1.842,-1.743 -20.602,13.154 -38.088,30.775 -51.086,51.484 -0.115,0.184 -0.228,0.371 -0.342,0.556 -0.57,0.927 -1.15,1.849 -1.698,2.789 -0.364,0.624 -0.733,1.245 -1.095,1.871 -1.664,2.883 -3.249,5.816 -4.739,8.805 l 28.992,12.039 c 0.599,0.248 1.099,0.757 1.333,1.357 l 8.677,22.172 z"
         id="path12" /><path
         d="m 434.855,106.359 c -0.034,-0.114 -0.062,-0.228 -0.102,-0.341 -0.121,-0.338 -0.271,-0.657 -0.433,-0.967 -14.743,-35.039 -40.819,-64.175 -73.612,-82.805 -0.042,-0.031 -0.08,-0.065 -0.123,-0.095 -0.463,-0.323 -0.951,-0.581 -1.453,-0.786 C 334.589,7.76 306.378,0 276.384,0 c -16.053,0 -31.595,2.225 -46.34,6.374 -0.396,0.078 -0.788,0.192 -1.175,0.337 -17.991,5.203 -33.34979,13.382388 -48.74134,24.426107 l -22.34977,18.445621 c -10.58868,9.696135 -16.44457,16.406757 -23.82539,26.342718 -12.98706,17.547543 -25.26852,42.019904 -29.25989,64.719314 -3.85386,26.49211 -2.45273,44.5119 2.80029,68.10575 5.88575,26.43574 24.75161,64.80078 51.95015,95.93381 36.92613,24.82018 72.11708,42.28848 119.35351,39.69253 51.1547,-5.16945 81.27182,-19.19701 108.54544,-42.79485 7.647,-6.52 14.725,-13.688 21.125,-21.438 0.504,-0.47 0.947,-1.017 1.312,-1.627 14.871,-18.458 25.998,-40.048 32.213,-63.616 0.108,-0.318 0.195,-0.638 0.259,-0.962 3.515,-13.649 5.385,-27.952 5.385,-42.684 0.002,-22.959 -4.55,-44.871 -12.781,-64.896 z m -17.362,-2.154 -7.68,2.738 c -1.039,0.371 -2.157,0.446 -3.235,0.219 l -9.478,-1.996 c -5.668,-1.192 -11.486,-0.147 -16.386,2.947 l -9.31,5.88 c -1.18,0.744 -2.624,0.955 -3.968,0.578 l -19.92,-5.603 c -0.764,-0.215 -1.298,-0.918 -1.298,-1.712 V 82.271 c 0,-0.431 -0.037,-0.861 -0.111,-1.286 L 343.33,65.013 c -0.448,-2.577 0.129,-5.179 1.626,-7.325 L 358.44,38.347 c 25.462,15.777 46.076,38.657 59.053,65.858 z M 227.928,22.709 241.164,46.217 v 22.077 c 0,2.219 0.727,4.424 2.046,6.208 l 14.671,19.851 -4.396,37.802 -22.521,26.274 c -1.524,1.778 -2.131,4.166 -1.641,6.455 l 1.662,7.754 -18.658,-14.625 -5.848,-24.225 c -1.136,-4.709 -5.311,-7.997 -10.153,-7.997 h -22.578 l -6.686,-17.084 c -1.031,-2.627 -3.117,-4.755 -5.72,-5.834 l -20.851,-8.659 c 19.078,-33.52 50.2,-59.327 87.437,-71.505 z m 172.889,242.925 -18.429,-7.126 -4.759,-11.104 c -0.847,-1.977 -2.502,-3.495 -4.544,-4.169 -2.041,-0.675 -4.276,-0.441 -6.134,0.643 l -20.156,11.757 -7.583,-4.604 c -1.984,-1.206 -3.268,-3.22 -3.52,-5.528 -0.251,-2.308 0.565,-4.551 2.244,-6.157 l 8.967,-8.577 c 0.115,-0.11 0.227,-0.225 0.335,-0.342 l 14.419,-15.673 c 3.184,-3.461 8.105,-4.688 12.543,-3.121 l 5.04,1.779 c 1.29,0.455 2.678,0.549 4.018,0.272 l 26.455,-5.474 16.259,8.184 c -5.438,17.991 -14.038,34.62 -25.155,49.24 z M 176.688,293.39 c 0,0 3.31451,0.86021 -1.06598,-3.69709 -12.66747,-13.17879 -39.56113,-53.91555 -47.47287,-78.22161 -7.40029,-22.7348 -4.85221,-36.67216 -5.13625,-54.23429 -0.53605,-33.14404 10.62193,-49.58263 10.62193,-49.58263 l 20.16417,8.33562 7.11,18.173 c 1.579,4.031 5.398,6.637 9.727,6.637 h 22.1 l 5.377,22.278 c 0.55,2.278 1.869,4.329 3.711,5.771 l 24.392,19.118 c 2.358,1.849 5.156,2.784 7.97,2.784 2.525,0 5.066,-0.754 7.309,-2.279 4.418,-3.002 6.41,-8.517 5.291,-13.739 l -2.006,-9.358 21.01,-24.511 c 1.359,-1.585 2.204,-3.52 2.444,-5.591 L 273,94.294 c 0.306,-2.642 -0.396,-5.275 -1.977,-7.412 L 256.174,66.79 V 45.02 c 0,-1.795 -0.462,-3.56 -1.344,-5.125 L 242.86,18.641 c 10.804,-2.371 22.019,-3.633 33.524,-3.633 24.701,0 48.077,5.771 68.864,16.021 l -12.601,18.075 c -3.776,5.414 -5.232,11.977 -4.101,18.481 l 2.666,15.334 v 24.338 c 0,7.52 5.002,14.123 12.242,16.159 l 19.922,5.603 c 1.769,0.498 3.582,0.742 5.389,0.742 3.736,0 7.442,-1.049 10.656,-3.079 l 9.31,-5.88 c 1.579,-0.997 3.454,-1.334 5.28,-0.95 l 9.478,1.996 c 3.786,0.797 7.719,0.531 11.364,-0.767 l 8.452,-3.014 c 6.032,16.61 9.327,34.52 9.327,53.187 -0.002,10.334 -1.02,20.431 -2.943,30.209 l -15.56,-7.833 c -1.514,-0.761 -3.238,-0.991 -4.895,-0.645 l -26.968,5.58 -3.069,-1.084 c -10.107,-3.566 -21.324,-0.775 -28.582,7.112 l -14.257,15.496 -8.397,8.032 c -4.994,4.777 -7.812,11.516 -7.243,18.404 0.598,7.237 4.529,13.582 10.708,17.334 l 11.402,6.922 c 2.354,1.429 5.298,1.454 7.676,0.067 l 16.679,-9.73 2.658,6.203 c 0.795,1.857 2.306,3.315 4.191,4.043 l 16.555,6.401 c -28.539,30.579 -69.173,49.734 -114.201,49.734 -44.801,0 -67.001,-10.209 -98.518,-33.018"
         id="path13"
         sodipodi:nodetypes="ccccscsccccccscccccccccccccccccsscccccccsccccccccscccccccccccccsscccccccccssscccsccccsccccccccsccsccccsccsccccccccccccccsccccccccsc" /><path
         d="m 279.811,238.381 c -3.87,-8.222 -12.242,-13.535 -21.328,-13.535 h -13.344 c -8.441,0 -16.42,4.474 -20.822,11.677 v 0 l -6.064,9.922 c -1.05,1.716 -1.365,3.781 -0.877,5.732 l 5.003,20.011 c 0.184,0.733 0.477,1.436 0.87,2.082 l 7.674,12.609 c 2.719,4.465 7.458,7.317 12.677,7.629 0.317,0.019 0.634,0.028 0.95,0.028 4.876,0 9.509,-2.236 12.543,-6.096 l 2.307,-2.936 19.762,-8.564 c 4.132,-1.791 7.284,-5.098 8.875,-9.311 1.59,-4.213 1.41,-8.778 -0.508,-12.851 z m -5.818,23.95 c -0.102,0.269 -0.323,0.633 -0.802,0.84 l -21.504,9.318 c -1.144,0.496 -2.147,1.269 -2.917,2.249 l -3.481,4.429 c -0.075,0.096 -0.306,0.39 -0.798,0.359 -0.493,-0.029 -0.687,-0.347 -0.75,-0.451 l -7.081,-11.633 -3.963,-15.853 4.424,-7.24 c 1.695,-2.772 4.767,-4.495 8.016,-4.495 h 13.344 c 3.302,0 6.343,1.931 7.749,4.918 l 7.716,16.399 c 0.224,0.471 0.149,0.891 0.047,1.16 z"
         id="path14" /><g
         id="g14">&#10;</g><g
         id="g15">&#10;</g><g
         id="g16">&#10;</g><g
         id="g17">&#10;</g><g
         id="g18">&#10;</g><g
         id="g19">&#10;</g><g
         id="g20">&#10;</g><g
         id="g21">&#10;</g><g
         id="g22">&#10;</g><g
         id="g23">&#10;</g><g
         id="g24">&#10;</g><g
         id="g25">&#10;</g><g
         id="g26">&#10;</g><g
         id="g27">&#10;</g><g
         id="g28">&#10;</g></g><ellipse
       style="display:inline;opacity:1;fill:none;stroke:#000000;stroke-width:10;stroke-linejoin:bevel;stroke-opacity:1"
       id="path1"
       cy="126.07396"
       cx="110.99271"
       rx="45.640625"
       ry="45.905209" /></g><path
     id="path4"
     style="display:inline;opacity:1;fill:#800000;fill-opacity:1;stroke:#aa0000;stroke-width:1.26336;stroke-linecap:round;stroke-linejoin:round;stroke-dasharray:none;stroke-dashoffset:2.8;stroke-opacity:1;paint-order:normal"
     d="m 35.796461,0.63167896 -24.873934,0.04547 -10.26810721,9.54463704 -0.02274,-0.180351 0.01964,23.259046 z" /></svg>
